<mxfile host="Electron" modified="2024-07-22T06:34:58.579Z" agent="Mozilla/5.0 (Windows NT 10.0; Win64; x64) AppleWebKit/537.36 (KHTML, like Gecko) draw.io/22.0.3 Chrome/114.0.5735.289 Electron/25.8.4 Safari/537.36" etag="o_Lm41TC2K7mIBl9xB3X" version="22.0.3" type="device">
  <diagram name="Page 1" id="Page-1">
    <mxGraphModel dx="1084" dy="926" grid="1" gridSize="10" guides="1" tooltips="1" connect="1" arrows="1" fold="1" page="1" pageScale="1" pageWidth="800" pageHeight="250" math="0" shadow="0">
      <root>
        <mxCell id="0" />
        <mxCell id="1" parent="0" />
        <UserObject label="" tags="Lien" id="46">
          <mxCell style="vsdxID=60;edgeStyle=none;startArrow=none;endArrow=block;startSize=5;endSize=5;strokeColor=#000000;spacingTop=0;spacingBottom=0;spacingLeft=0;spacingRight=0;verticalAlign=middle;html=1;labelBackgroundColor=#ffffff;rounded=0;entryX=0;entryY=0.5;entryDx=0;entryDy=0;entryPerimeter=0;" parent="1" source="O1ei94aA5wr8oGINsI6I-49" target="B6JIZhuQFMOalBQYK2N4-51" edge="1">
            <mxGeometry relative="1" as="geometry">
              <mxPoint x="-1" as="offset" />
              <Array as="points" />
              <mxPoint x="571" y="131" as="targetPoint" />
              <mxPoint x="488" y="131" as="sourcePoint" />
            </mxGeometry>
          </mxCell>
        </UserObject>
        <UserObject label="" tags="Lien" id="47">
          <mxCell style="vsdxID=59;edgeStyle=orthogonalEdgeStyle;startArrow=none;endArrow=block;startSize=5;endSize=5;strokeColor=#000000;spacingTop=0;spacingBottom=0;spacingLeft=0;spacingRight=0;verticalAlign=middle;html=1;labelBackgroundColor=#ffffff;exitX=1;exitY=0.5;exitDx=0;exitDy=0;exitPerimeter=0;rounded=1;" parent="1" source="B6JIZhuQFMOalBQYK2N4-50" target="O1ei94aA5wr8oGINsI6I-49" edge="1">
            <mxGeometry relative="1" as="geometry">
              <mxPoint y="-1" as="offset" />
              <mxPoint x="273" y="178" as="sourcePoint" />
              <mxPoint x="357" y="131" as="targetPoint" />
            </mxGeometry>
          </mxCell>
        </UserObject>
        <UserObject label="" tags="Lien" id="48">
          <mxCell style="vsdxID=58;edgeStyle=orthogonalEdgeStyle;startArrow=none;endArrow=block;startSize=5;endSize=5;strokeColor=#000000;spacingTop=0;spacingBottom=0;spacingLeft=0;spacingRight=0;verticalAlign=middle;html=1;labelBackgroundColor=#ffffff;exitX=1;exitY=0.5;exitDx=0;exitDy=0;exitPerimeter=0;targetPerimeterSpacing=0;sourcePerimeterSpacing=0;" parent="1" source="B6JIZhuQFMOalBQYK2N4-49" target="O1ei94aA5wr8oGINsI6I-49" edge="1">
            <mxGeometry relative="1" as="geometry">
              <mxPoint y="-1" as="offset" />
              <mxPoint x="273" y="73" as="sourcePoint" />
              <mxPoint x="357" y="131" as="targetPoint" />
            </mxGeometry>
          </mxCell>
        </UserObject>
        <UserObject label="" tags="Diagramme_de_flux Lien" id="49">
          <mxCell parent="1" vertex="1" visible="0">
            <mxGeometry as="geometry" />
          </mxCell>
        </UserObject>
        <mxCell id="B6JIZhuQFMOalBQYK2N4-49" value=".h" style="whiteSpace=wrap;html=1;shape=mxgraph.basic.document;fillColor=#dae8fc;strokeColor=#6c8ebf;" parent="1" vertex="1">
          <mxGeometry x="200" y="40" width="60" height="80" as="geometry" />
        </mxCell>
        <mxCell id="B6JIZhuQFMOalBQYK2N4-50" value=".c" style="whiteSpace=wrap;html=1;shape=mxgraph.basic.document;fillColor=#dae8fc;strokeColor=#6c8ebf;" parent="1" vertex="1">
          <mxGeometry x="200" y="136" width="60" height="80" as="geometry" />
        </mxCell>
        <mxCell id="B6JIZhuQFMOalBQYK2N4-51" value=".i" style="whiteSpace=wrap;html=1;shape=mxgraph.basic.document;fillColor=#d5e8d4;strokeColor=#82b366;" parent="1" vertex="1">
          <mxGeometry x="540" y="90.5" width="60" height="80" as="geometry" />
        </mxCell>
        <mxCell id="O1ei94aA5wr8oGINsI6I-49" value="PrÃ©processeur&lt;br&gt;&lt;b&gt;&lt;font face=&quot;Lucida Console&quot;&gt;gcc -E&lt;/font&gt;&lt;/b&gt;" style="rounded=0;whiteSpace=wrap;html=1;" vertex="1" parent="1">
          <mxGeometry x="370" y="100.5" width="120" height="60" as="geometry" />
        </mxCell>
      </root>
    </mxGraphModel>
  </diagram>
</mxfile>
